<svg width="249" height="62" viewBox="0 0 249 62" fill="none" xmlns="http://www.w3.org/2000/svg">
<path d="M48.2 43.95C48.4333 41.9833 49.3 40.3833 50.8 39.15C54.2667 41.35 57.6167 42.45 60.85 42.45C62.5833 42.45 63.9333 42.0667 64.9 41.3C65.8667 40.5333 66.35 39.5333 66.35 38.3C66.4167 36.3333 65.0833 34.75 62.35 33.55L56.45 31.05C51.8167 28.9833 49.5 26.0167 49.5 22.15C49.5 19.2833 50.6 16.9 52.8 15C55 13.1 57.8667 12.15 61.4 12.15C64.9667 12.15 68.55 13.05 72.15 14.85C72.05 16.8167 71.3167 18.45 69.95 19.75C66.75 18.15 63.8333 17.35 61.2 17.35C59.5667 17.35 58.2833 17.75 57.35 18.55C56.45 19.3167 56 20.25 56 21.35C56 22.9833 57.2167 24.3167 59.65 25.35L65.55 27.85C70.55 30.0167 73.05 33.2 73.05 37.4C73.05 40.4667 71.9667 42.95 69.8 44.85C67.6333 46.75 64.4167 47.7 60.15 47.7C55.9167 47.7 51.9333 46.45 48.2 43.95ZM90.1832 12.6C93.7165 12.6 96.5499 13.5833 98.6832 15.55C100.85 17.4833 101.933 20.3 101.933 24C101.933 27.6667 100.85 30.5 98.6832 32.5C96.5499 34.4667 93.7165 35.45 90.1832 35.45H85.3832V47C84.5499 47.1667 83.4832 47.25 82.1832 47.25C80.8832 47.25 79.8332 47.1667 79.0332 47V13.1L79.3832 12.8C84.6499 12.6667 88.2499 12.6 90.1832 12.6ZM85.3832 17.55V30.6C87.6499 30.5333 89.1165 30.5 89.7832 30.5C91.8499 30.5 93.2999 29.8667 94.1332 28.6C94.9665 27.3 95.3832 25.7833 95.3832 24.05C95.3832 22.2833 94.9665 20.7667 94.1332 19.5C93.2999 18.2333 91.8832 17.6 89.8832 17.6C87.9165 17.6 86.4165 17.5833 85.3832 17.55ZM120.092 17.15C114.992 17.15 112.442 21.4167 112.442 29.95C112.442 38.45 114.992 42.7 120.092 42.7C125.225 42.7 127.792 38.45 127.792 29.95C127.792 21.4167 125.225 17.15 120.092 17.15ZM111.142 44.65C107.575 41.6167 105.792 36.7167 105.792 29.95C105.792 23.15 107.575 18.2333 111.142 15.2C113.575 13.1667 116.558 12.15 120.092 12.15C123.625 12.15 126.642 13.1667 129.142 15.2C132.675 18.2333 134.442 23.15 134.442 29.95C134.442 36.7167 132.675 41.6167 129.142 44.65C126.642 46.6833 123.625 47.7 120.092 47.7C116.558 47.7 113.575 46.6833 111.142 44.65ZM151.175 18.1L151.225 21.8V47C150.359 47.1667 149.292 47.25 148.025 47.25C146.759 47.25 145.709 47.1667 144.875 47V18.1L141.875 18.15H136.225C136.059 17.3833 135.975 16.5167 135.975 15.55C135.975 14.55 136.059 13.65 136.225 12.85H159.875C160.109 13.6833 160.225 14.5667 160.225 15.5C160.225 16.4 159.942 17.0667 159.375 17.5C158.842 17.9333 157.975 18.15 156.775 18.15H154.225L151.225 18.1H151.175ZM177.982 18.1L178.032 21.8V47C177.165 47.1667 176.099 47.25 174.832 47.25C173.565 47.25 172.515 47.1667 171.682 47V18.1L168.682 18.15H163.032C162.865 17.3833 162.782 16.5167 162.782 15.55C162.782 14.55 162.865 13.65 163.032 12.85H186.682C186.915 13.6833 187.032 14.5667 187.032 15.5C187.032 16.4 186.749 17.0667 186.182 17.5C185.649 17.9333 184.782 18.15 183.582 18.15H181.032L178.032 18.1H177.982Z" fill="#E9DFF7"/>
<path d="M197.783 38.85L197.733 41.8C199.133 41.7333 200.283 41.7 201.183 41.7H213.583C213.583 42.7333 213.55 43.5167 213.483 44.05C213.117 46.0833 211.75 47.1 209.383 47.1H195.133C194 47.1 193.1 46.7667 192.433 46.1C191.8 45.4 191.483 44.45 191.483 43.25V13.2L191.833 12.85H212.483C212.65 13.65 212.733 14.4833 212.733 15.35C212.733 16.1833 212.567 17.1333 212.233 18.2H197.733L197.783 21.6V27.2C198.583 27.1667 199.65 27.15 200.983 27.15H209.683C209.917 27.95 210.033 28.8333 210.033 29.8C210.033 30.7333 209.917 31.6 209.683 32.4H200.983C199.65 32.4 198.583 32.3833 197.783 32.35V38.85ZM240.85 15.15C242.95 16.85 244.367 18.9 245.1 21.3C245.867 23.7 246.25 26.5833 246.25 29.95C246.25 33.2833 245.867 36.1667 245.1 38.6C244.367 41 242.95 43.05 240.85 44.75C239.817 45.5833 238.45 46.2167 236.75 46.65C235.083 47.05 233.383 47.25 231.65 47.25C229.917 47.25 226.15 47.1833 220.35 47.05L220 46.75V13.1L220.35 12.8C224.183 12.6667 228.05 12.6 231.95 12.6C233.483 12.6 235.083 12.8167 236.75 13.25C238.45 13.6833 239.817 14.3167 240.85 15.15ZM238.35 38.15C238.883 36.85 239.233 35.5667 239.4 34.3C239.6 33 239.7 31.55 239.7 29.95C239.7 28.3167 239.6 26.8667 239.4 25.6C239.233 24.3 238.883 23.0167 238.35 21.75C237.85 20.45 237.05 19.45 235.95 18.75C234.85 18.0167 233.317 17.65 231.35 17.65C229.383 17.65 227.717 17.6333 226.35 17.6V42.2H231.9C233.5 42.2 234.85 41.85 235.95 41.15C237.05 40.4167 237.85 39.4167 238.35 38.15Z" fill="#74F9FF"/>
<path d="M27.8383 39.5941C22.8165 38.7064 18.4916 36.4229 15.8149 33.2458C13.1382 30.0688 12.3291 26.2585 13.5654 22.6531C14.8018 19.0477 17.9824 15.9427 22.4076 14.0209C26.8328 12.0992 32.14 11.5183 37.1617 12.4059L32.5 26L27.8383 39.5941Z" fill="#74F9FF"/>
<path d="M15.2192 48.5941C20.3697 49.4817 25.813 48.9007 30.3516 46.9789C34.8902 45.0571 38.1522 41.952 39.4202 38.3466C40.6881 34.7412 39.8581 30.9309 37.1127 27.7539C34.3673 24.5769 29.9314 22.2934 24.7808 21.4059L20 35L15.2192 48.5941Z" fill="#74F9FF"/>
</svg>
